<?xml version="1.0" encoding="UTF-8" standalone="no"?>
<!-- Created with Inkscape (http://www.inkscape.org/) -->

<svg
   xmlns:dc="http://purl.org/dc/elements/1.1/"
   xmlns:cc="http://creativecommons.org/ns#"
   xmlns:rdf="http://www.w3.org/1999/02/22-rdf-syntax-ns#"
   xmlns:svg="http://www.w3.org/2000/svg"
   xmlns="http://www.w3.org/2000/svg"
   xmlns:sodipodi="http://sodipodi.sourceforge.net/DTD/sodipodi-0.dtd"
   xmlns:inkscape="http://www.inkscape.org/namespaces/inkscape"
   width="210mm"
   height="297mm"
   id="svg2"
   version="1.1"
   inkscape:version="0.48.5 r10040"
   sodipodi:docname="LOGOmilfs.pdf">
  <defs
     id="defs4" />
  <sodipodi:namedview
     id="base"
     pagecolor="#ffffff"
     bordercolor="#666666"
     borderopacity="1.0"
     inkscape:pageopacity="0.0"
     inkscape:pageshadow="2"
     inkscape:zoom="0.46626612"
     inkscape:cx="243.03431"
     inkscape:cy="679.72331"
     inkscape:document-units="px"
     inkscape:current-layer="layer1"
     showgrid="false"
     inkscape:window-width="1366"
     inkscape:window-height="744"
     inkscape:window-x="0"
     inkscape:window-y="256"
     inkscape:window-maximized="1" />
  <metadata
     id="metadata7">
    <rdf:RDF>
      <cc:Work
         rdf:about="">
        <dc:format>image/svg+xml</dc:format>
        <dc:type
           rdf:resource="http://purl.org/dc/dcmitype/StillImage" />
        <dc:title></dc:title>
      </cc:Work>
    </rdf:RDF>
  </metadata>
  <g
     inkscape:label="Capa 1"
     inkscape:groupmode="layer"
     id="layer1">
    <path
       style="color:#000000;fill:#000000;fill-opacity:1;fill-rule:nonzero;stroke:none;stroke-width:1;marker:none;visibility:visible;display:inline;overflow:visible;enable-background:accumulate"
       d="m 677.92579,401.73158 c 0,159.44265 -129.25379,288.69644 -288.69644,288.69644 -159.44265,0 -288.69644,-129.25379 -288.69644,-288.69644 0,-159.44265 129.25379,-288.69644 288.69644,-288.69644 159.44265,0 288.69644,129.25379 288.69644,288.69644 z"
       id="path2995"
       inkscape:connector-curvature="0"
       inkscape:export-filename="/home/fredyrivera/MEGA/MEGAsync/git/MILFS/milfs/logos/logo_grande.png"
       inkscape:export-xdpi="77.936539"
       inkscape:export-ydpi="77.936539" />
    <g
       id="text2985-9"
       style="font-size:109.90141296px;font-style:normal;font-weight:normal;line-height:125%;letter-spacing:0px;word-spacing:0px;fill:#ffffff;fill-opacity:1;stroke:none;font-family:Sans"
       transform="matrix(1.0335284,0,0,0.93021448,-15.456421,24.918007)"
       inkscape:export-filename="/home/fredyrivera/MEGA/MEGAsync/git/MILFS/milfs/logos/logo_grande.png"
       inkscape:export-xdpi="77.936539"
       inkscape:export-ydpi="77.936539">
      <path
         inkscape:connector-curvature="0"
         id="path3106"
         d="m 240.20155,526.4548 16.1525,0 20.44553,54.52141 20.55285,-54.52141 16.15251,0 0,80.11856 -10.57158,0 0,-70.35193 -20.66017,54.95071 -10.89355,0 -20.66018,-54.95071 0,70.35193 -10.51791,0 0,-80.11856" />
      <path
         inkscape:connector-curvature="0"
         id="path3108"
         d="m 335.07738,526.4548 10.83989,0 0,80.11856 -10.83989,0 0,-80.11856" />
      <path
         inkscape:connector-curvature="0"
         id="path3110"
         d="m 367.48971,526.4548 10.83989,0 0,70.99589 39.01285,0 0,9.12267 -49.85274,0 0,-80.11856" />
      <path
         inkscape:connector-curvature="0"
         id="path3112"
         d="m 428.6653,526.4548 46.04268,0 0,9.12268 -35.2028,0 0,23.61163 31.76838,0 0,9.12268 -31.76838,0 0,38.26157 -10.83988,0 0,-80.11856" />
      <path
         inkscape:connector-curvature="0"
         id="path3114"
         d="m 538.08376,529.08428 0,10.57157 c -4.1142,-1.96756 -7.99581,-3.43435 -11.64483,-4.40035 -3.64911,-0.96585 -7.17296,-1.44882 -10.57157,-1.44889 -5.90294,7e-5 -10.46427,1.14488 -13.68401,3.43442 -3.18401,2.28968 -4.77601,5.54522 -4.77599,9.76663 -2e-5,3.5418 1.05535,6.22494 3.1661,8.04942 2.14649,1.78881 6.18909,3.2377 12.1278,4.34668 l 6.54686,1.34157 c 8.08515,1.53838 14.04171,4.25729 17.86971,8.15675 3.86366,3.86375 5.79552,9.05115 5.79558,15.56221 -6e-5,7.76323 -2.61165,13.64825 -7.83477,17.65506 -5.18745,4.00682 -12.80756,6.01023 -22.86035,6.01024 -3.7922,-10e-6 -7.83479,-0.42931 -12.12779,-1.28791 -4.25727,-0.85861 -8.6755,-2.12862 -13.25471,-3.81006 l 0,-11.16186 c 4.40034,2.4685 8.71124,4.32881 12.93273,5.58093 4.22145,1.25214 8.37137,1.8782 12.44977,1.8782 6.18907,0 10.96506,-1.21635 14.32797,-3.64907 3.36282,-2.4327 5.04425,-5.9029 5.0443,-10.41059 -5e-5,-3.93524 -1.21641,-7.01191 -3.64907,-9.23 -2.39698,-2.21803 -6.35014,-3.88157 -11.85948,-4.99064 l -6.60052,-1.28791 c -8.08522,-1.60984 -13.93446,-4.13199 -17.54774,-7.56645 -3.6133,-3.43437 -5.41995,-8.21036 -5.41994,-14.32797 -10e-6,-7.08342 2.48637,-12.66435 7.45913,-16.74279 5.00851,-4.07829 11.89523,-6.11748 20.66018,-6.11756 3.75635,8e-5 7.5843,0.33994 11.48384,1.01959 3.89944,0.67981 7.88837,1.6994 11.9668,3.05878" />
    </g>
    <text
       xml:space="preserve"
       style="font-size:16.66685295px;font-style:normal;font-weight:normal;line-height:125%;letter-spacing:0px;word-spacing:0px;fill:#ffffff;fill-opacity:1;stroke:none;font-family:Sans"
       x="231.16281"
       y="608.90582"
       id="text3061"
       sodipodi:linespacing="125%"
       inkscape:export-filename="/home/fredyrivera/MEGA/MEGAsync/git/MILFS/milfs/logos/logo_grande.png"
       inkscape:export-xdpi="77.936539"
       inkscape:export-ydpi="77.936539"><tspan
         sodipodi:role="line"
         id="tspan3063"
         x="231.16281"
         y="608.90582">Multi Interactive &amp; Light Form System</tspan></text>
    <text
       xml:space="preserve"
       style="font-size:12.97389126px;font-style:normal;font-weight:normal;line-height:125%;letter-spacing:0px;word-spacing:0px;fill:#999999;fill-opacity:1;stroke:none;font-family:Sans"
       x="340.99854"
       y="668.78949"
       id="text3065"
       sodipodi:linespacing="125%"
       inkscape:export-filename="/home/fredyrivera/MEGA/MEGAsync/git/MILFS/milfs/logos/logo_grande.png"
       inkscape:export-xdpi="77.936539"
       inkscape:export-ydpi="77.936539"><tspan
         sodipodi:role="line"
         id="tspan3067"
         x="340.99854"
         y="668.78949">by QWERTY.CO</tspan></text>
    <path
       inkscape:connector-curvature="0"
       id="path3902"
       d="m 414.31416,465.76481 -25.08481,25.0848 -25.08481,-25.0848 -25.0848,-25.08481 25.0848,-25.08481 25.08481,-25.08479 25.08479,25.08479 25.08481,25.08481 -25.08479,25.08481 z m -7.16709,-7.16709 17.91772,-17.91772 -17.91772,-17.91771 -17.91772,-17.91773 -17.91771,17.91773 -17.91773,17.91771 17.91773,17.91772 17.91771,17.91771 17.91772,-17.91771 z m -7.16709,-7.1671 -10.75063,10.75065 -10.75063,-10.75065 -10.75062,-10.75062 10.75062,-10.75063 10.75063,-10.75062 10.75063,10.75062 10.75063,10.75063 -10.75063,10.75062 z m 50.16962,-21.50125 -3.58355,3.58354 -3.58354,-3.58354 -3.58356,-3.58355 3.58356,-3.58353 3.58354,-3.58354 3.58355,3.58354 3.58354,3.58353 -3.58354,3.58355 z m 25.08479,-25.08481 -7.16708,7.1671 -3.58355,-3.58354 -3.58353,-3.58356 -3.58356,3.58356 -3.58353,3.58354 -7.16709,-7.1671 -7.1671,-7.16706 -3.58353,3.58352 -3.58355,3.58354 3.58355,3.58356 3.58353,3.58354 -3.58353,3.58353 -3.58355,3.58356 -14.33417,-14.33419 -14.33419,-14.33416 7.1671,-7.16709 7.16709,-7.16709 -3.58356,-3.58353 -3.58353,-3.58356 -7.1671,7.16709 -7.16707,7.16709 -3.58355,-3.58355 -3.58354,-3.58354 -10.75063,10.75063 -10.75062,10.75063 -3.58356,-3.58354 -3.58353,-3.58356 -3.58356,3.58356 -3.58354,3.58354 3.58354,3.58354 3.58356,3.58354 -3.58356,3.58354 -3.58354,3.58356 -3.58353,-3.58356 -3.58355,-3.58354 -3.58354,3.58354 -3.58355,3.58356 3.58355,3.58353 3.58354,3.58356 -3.58354,3.58354 -3.58355,3.58353 -10.75064,-10.75063 -10.75062,-10.75063 3.58356,-3.58354 3.58353,-3.58354 -3.58353,-3.58354 -3.58356,-3.58356 -7.16709,7.1671 -7.16709,7.16708 -7.16707,-7.16708 -7.1671,-7.1671 7.1671,-7.16707 7.16707,-7.16709 -10.75063,-10.75063 -10.75063,-10.75063 17.91773,-17.91771 17.91771,-17.91772 3.58354,3.58354 3.58355,3.58353 10.75063,-10.75062 10.75063,-10.75064 3.58355,3.58356 3.58353,3.58354 3.58354,-3.58354 3.58356,-3.58356 -3.58356,-3.58353 -3.58354,-3.58353 3.58354,-3.58356 3.58356,-3.58355 -10.75063,-10.75063 -10.75065,-10.75063 -3.58353,3.58356 -3.58356,3.58353 3.58356,3.58354 3.58353,3.58355 -3.58353,3.58354 -3.58356,3.58354 -3.58354,-3.58354 -3.58353,-3.58354 3.58353,-3.58355 3.58354,-3.58354 -3.58354,-3.58353 -3.58353,-3.58356 3.58353,-3.58354 3.58354,-3.58353 -3.58354,-3.58356 -3.58353,-3.58355 -7.16709,7.16711 -7.16709,7.16707 3.58355,3.58356 3.58354,3.58353 -3.58354,3.58354 -3.58355,3.58355 10.75063,10.75063 10.75062,10.75062 -3.58354,3.58356 -3.58353,3.58354 -21.50128,-21.50127 -21.50125,-21.50126 7.16709,-7.16707 7.1671,-7.16711 3.58354,3.58355 3.58352,3.58356 7.1671,-7.16711 7.16709,-7.16708 3.58354,3.58354 3.58355,3.58354 3.58353,-3.58354 3.58354,-3.58354 -3.58354,-3.58354 -3.58353,-3.58355 3.58353,-3.58353 3.58354,-3.58355 -7.16707,-7.16709 -7.16709,-7.16708 -3.58354,3.58353 -3.58355,3.58355 3.58355,3.58354 3.58354,3.58355 -7.16709,7.16708 -7.1671,7.16709 -7.16706,-7.16709 -7.1671,-7.16708 10.75064,-10.75064 10.75062,-10.75062 3.58355,3.58354 3.58354,3.58355 7.16709,-7.16709 7.16707,-7.1671 -3.58354,-3.58353 -3.58353,-3.58355 3.58353,-3.58354 3.58354,-3.58355 10.75065,10.75064 10.75062,10.75063 -3.58353,3.58354 -3.58355,3.58355 -3.58354,-3.58355 -3.58356,-3.58354 -3.58353,3.58354 -3.58356,3.58355 7.16709,7.16708 7.1671,7.16709 -3.58354,3.58355 -3.58356,3.58353 3.58356,3.58355 3.58354,3.58354 -7.1671,7.16708 -7.16709,7.16711 3.58356,3.58353 3.58353,3.58354 3.58356,-3.58354 3.58354,-3.58353 7.16708,7.16707 7.1671,7.16709 3.58353,-3.58353 3.58354,-3.58356 -7.16707,-7.16707 -7.1671,-7.16711 3.58354,-3.58354 3.58356,-3.58354 -3.58356,-3.58354 -3.58354,-3.58355 7.1671,-7.16708 7.16707,-7.16709 10.75064,10.75064 10.75063,10.75062 -3.58355,3.58354 -3.58354,3.58354 -7.16707,-7.16708 -7.16711,-7.16709 -3.58354,3.58355 -3.58353,3.58354 10.75063,10.75063 10.75062,10.75063 -3.58354,3.58356 -3.58353,3.58353 3.58353,3.58354 3.58354,3.58355 7.16709,-7.16709 7.16709,-7.16709 -3.58355,-3.58354 -3.58354,-3.58353 3.58354,-3.58356 3.58355,-3.58355 3.58354,3.58355 3.58353,3.58356 7.1671,-7.16711 7.16709,-7.16708 -3.58356,-3.58354 -3.58353,-3.58355 -3.58354,3.58355 -3.58356,3.58354 -3.58353,-3.58354 -3.58354,-3.58355 17.9177,-17.91772 17.91773,-17.91772 3.58355,3.58355 3.58353,3.58355 3.58356,-3.58355 3.58354,-3.58355 3.58355,3.58355 3.58354,3.58355 3.58353,-3.58355 3.58356,-3.58355 10.75063,10.75064 10.75062,10.75063 -3.58354,3.58354 -3.58355,3.58355 3.58355,3.58355 3.58354,3.58353 3.58355,-3.58353 3.58354,-3.58355 7.16709,7.16708 7.16709,7.16709 -3.58355,3.58354 -3.58354,3.58354 -3.58355,-3.58354 -3.58354,-3.58354 -3.58354,3.58354 -3.58355,3.58354 -7.16709,-7.16708 -7.16708,-7.16709 -3.58355,3.58355 -3.58353,3.58354 10.75063,10.75063 10.75062,10.75063 3.58355,-3.58354 3.58354,-3.58353 7.16709,7.16707 7.16709,7.16709 7.16709,-7.16709 7.16708,-7.16707 3.58355,3.58353 3.58354,3.58354 -3.58354,3.58356 -3.58355,3.58353 3.58355,3.58354 3.58354,3.58355 3.58355,-3.58355 3.58353,-3.58354 17.91772,17.91772 17.91772,17.91772 -25.08481,25.08481 -25.0848,25.08481 -3.58355,-3.58356 -3.58353,-3.58354 -7.16709,7.1671 -7.16709,7.16707 -3.58355,-3.58354 -3.58354,-3.58353 -3.58354,3.58353 -3.58355,3.58354 3.58355,3.58356 3.58354,3.58353 -3.58354,3.58354 -3.58355,3.58355 -3.58354,-3.58355 -3.58355,-3.58354 -7.16708,7.16709 -7.16708,7.16709 3.58353,3.58354 3.58355,3.58356 3.58355,-3.58356 3.58353,-3.58354 3.58355,3.58354 3.58354,3.58356 -7.16709,7.16706 z m 71.67089,-86.00503 7.16708,-7.16709 -7.16708,-7.1671 -7.1671,-7.16706 -3.58355,3.58353 -3.58354,3.58353 3.58354,3.58356 3.58355,3.58354 -3.58355,3.58354 -3.58354,3.58355 -7.16708,-7.16709 -7.16709,-7.1671 -3.58355,3.58356 -3.58353,3.58354 3.58353,3.58354 3.58355,3.58355 -3.58355,3.58354 -3.58353,3.58353 3.58353,3.58355 3.58355,3.58354 7.16709,-7.16709 7.16708,-7.16707 3.58354,3.58354 3.58355,3.58353 7.1671,-7.16707 z m -39.41899,25.08481 3.58355,-3.58356 -3.58355,-3.58353 -3.58354,-3.58356 -3.58355,3.58356 -3.58354,3.58353 3.58354,3.58356 3.58355,3.58354 3.58354,-3.58354 z m -53.75315,39.41897 7.16709,-7.16709 -3.58356,-3.58353 -3.58353,-3.58356 -3.58354,3.58356 -3.58355,3.58353 -7.1671,-7.16709 -7.16708,-7.16707 3.58355,-3.58356 3.58353,-3.58354 3.58356,3.58354 3.58354,3.58356 3.58355,-3.58356 3.58354,-3.58354 7.16709,7.1671 7.16708,7.16707 10.75063,-10.75063 10.75063,-10.75062 -3.58354,-3.58354 -3.58355,-3.58356 -7.16709,7.1671 -7.16708,7.16708 -3.58355,-3.58355 -3.58353,-3.58353 -3.58356,3.58353 -3.58353,3.58355 -3.58354,-3.58355 -3.58355,-3.58353 7.16709,-7.1671 7.16709,-7.16709 -3.58356,-3.58354 -3.58353,-3.58355 -7.16709,7.16709 -7.1671,7.16709 -3.58353,-3.58353 -3.58355,-3.58356 -3.58355,3.58356 -3.58353,3.58353 -3.58354,-3.58353 -3.58355,-3.58356 7.16709,-7.16709 7.16708,-7.16707 3.58355,3.58354 3.58353,3.58353 3.58356,-3.58353 3.58354,-3.58354 -7.1671,-7.16709 -7.16708,-7.1671 3.58355,-3.58353 3.58353,-3.58353 3.58356,3.58353 3.58354,3.58353 14.33418,-14.33417 14.33416,-14.33417 3.58355,3.58354 3.58354,3.58355 3.58355,-3.58355 3.58354,-3.58354 -3.58354,-3.58353 -3.58355,-3.58356 -3.58354,3.58356 -3.58355,3.58353 -10.75063,-10.75063 -10.75062,-10.75064 3.58353,-3.58354 3.58356,-3.58354 -3.58356,-3.58354 -3.58353,-3.58355 7.16709,-7.16708 7.16708,-7.16709 -3.58355,-3.58355 -3.58353,-3.58353 -3.58356,3.58353 -3.58353,3.58355 -7.16709,-7.16708 -7.1671,-7.16709 -10.75063,10.75062 -10.75062,10.75064 3.58355,3.58355 3.58354,3.58353 7.16708,-7.16708 7.16708,-7.16709 3.58356,3.58354 3.58354,3.58355 -7.1671,7.16708 -7.16708,7.16709 3.58355,3.58354 3.58353,3.58354 3.58356,-3.58354 3.58354,-3.58354 3.58355,3.58354 3.58354,3.58354 -3.58354,3.58355 -3.58355,3.58356 7.16709,7.16707 7.16709,7.16709 -7.16709,7.16709 -7.16709,7.16708 -3.58354,-3.58354 -3.58356,-3.58354 3.58356,-3.58355 3.58354,-3.58354 -3.58354,-3.58353 -3.58356,-3.58356 -3.58353,3.58356 -3.58355,3.58353 3.58355,3.58354 3.58353,3.58355 -7.16708,7.16708 -7.16708,7.16711 -3.58354,-3.58356 -3.58355,-3.58355 3.58355,-3.58354 3.58354,-3.58354 -7.16709,-7.16709 -7.16709,-7.16709 -10.75063,10.75063 -10.75063,10.75063 -3.58355,-3.58354 -3.58354,-3.58354 -3.58354,3.58354 -3.58353,3.58354 -3.58355,-3.58354 -3.58356,-3.58354 -3.58354,3.58354 -3.58353,3.58354 3.58353,3.58355 3.58354,3.58356 -3.58354,3.58353 -3.58353,3.58353 3.58353,3.58356 3.58354,3.58354 7.16711,-7.1671 7.16707,-7.16706 3.58354,3.58353 3.58355,3.58353 10.75063,-10.75062 10.75063,-10.75063 3.58353,3.58354 3.58356,3.58354 -14.33419,14.33417 -14.33416,14.33419 -3.58355,-3.58355 -3.58354,-3.58354 -7.16707,7.16709 -7.16711,7.16707 -3.58354,-3.58353 -3.58353,-3.58354 -14.33418,14.33416 -14.33419,14.33419 3.58356,3.58353 3.58353,3.58355 -3.58353,3.58354 -3.58354,3.58354 -7.16709,-7.16708 -7.16709,-7.16708 -3.58354,3.58353 -3.58355,3.58355 -3.58354,-3.58355 -3.58355,-3.58353 -3.58353,3.58353 -3.58354,3.58355 7.16707,7.16708 7.16709,7.16709 -3.58354,3.58355 -3.58355,3.58354 7.16709,7.16709 7.16709,7.16707 3.58356,-3.58353 3.58353,-3.58354 -7.16709,-7.16709 -7.16709,-7.16709 3.58355,-3.58354 3.58354,-3.58355 10.75062,10.75064 10.75064,10.75063 -3.58354,3.58354 -3.58354,3.58353 7.16708,7.1671 7.16709,7.16708 3.58355,-3.58354 3.58353,-3.58354 -7.16708,-7.1671 -7.16709,-7.16707 3.58355,-3.58356 3.58354,-3.58353 -3.58354,-3.58354 -3.58355,-3.58355 3.58355,-3.58354 3.58354,-3.58353 3.58355,3.58353 3.58353,3.58354 7.1671,-7.16707 7.16707,-7.1671 3.58356,3.58354 3.58355,3.58356 -10.75065,10.75063 -10.75063,10.75062 3.58354,3.58354 3.58356,3.58353 14.33418,-14.33416 14.33416,-14.33416 -3.58355,-3.58356 -3.58354,-3.58354 3.58354,-3.58355 3.58355,-3.58353 3.58354,3.58353 3.58355,3.58355 3.58354,-3.58355 3.58353,-3.58353 -3.58353,-3.58354 -3.58354,-3.58356 -3.58355,3.58356 -3.58354,3.58354 -3.58355,-3.58354 -3.58354,-3.58356 -7.16707,7.1671 -7.16711,7.16708 -3.58354,-3.58355 -3.58353,-3.58353 3.58353,-3.58354 3.58354,-3.58356 -3.58354,-3.58353 -3.58353,-3.58356 3.58353,-3.58354 3.58354,-3.58355 3.58356,3.58355 3.58355,3.58354 3.58353,-3.58354 3.58354,-3.58355 3.58354,3.58355 3.58355,3.58354 17.91772,-17.91771 17.91772,-17.9177 3.58353,3.58353 3.58355,3.58353 -14.33417,14.33419 -14.33419,14.33416 7.1671,7.16709 7.16709,7.1671 -7.16709,7.16708 -7.1671,7.1671 3.58356,3.58353 3.58354,3.58354 3.58353,-3.58354 3.58356,-3.58353 3.58355,3.58353 3.58354,3.58354 -3.58354,3.58356 -3.58355,3.58353 3.58355,3.58354 3.58354,3.58355 3.58353,-3.58355 3.58355,-3.58354 7.16708,7.16709 7.1671,7.16709 7.16709,-7.16709 z m -10.75063,-32.2519 -3.58356,3.58355 -3.58353,-3.58355 -3.58355,-3.58353 -3.58355,3.58353 -3.58353,3.58355 -3.58354,-3.58355 -3.58355,-3.58353 3.58355,-3.58354 3.58354,-3.58356 3.58353,3.58356 3.58355,3.58354 3.58355,-3.58354 3.58353,-3.58356 3.58356,3.58356 3.58354,3.58354 -3.58354,3.58353 z m -93.17213,7.16709 -3.58355,3.58356 -3.58354,-3.58356 -3.58356,-3.58354 3.58356,-3.58355 3.58354,-3.58353 3.58355,3.58353 3.58353,3.58355 -3.58353,3.58354 z m 136.17465,-35.83543 10.75063,-10.75063 -10.75063,-10.75063 -10.75064,-10.75064 -10.75063,10.75064 -10.75062,10.75063 10.75062,10.75063 10.75063,10.75062 10.75064,-10.75062 z m -7.16709,-7.16709 -3.58355,3.58355 -3.58353,-3.58355 -3.58355,-3.58354 3.58355,-3.58354 3.58353,-3.58356 3.58355,3.58356 3.58354,3.58354 -3.58354,3.58354 z m 35.83543,-21.50126 3.58355,-3.58355 -3.58355,-3.58354 -3.58353,-3.58354 -3.58355,3.58354 -3.58354,3.58354 3.58354,3.58355 3.58355,3.58356 3.58353,-3.58356 z m -186.34427,43.00253 3.58354,-3.58356 -3.58354,-3.58354 -3.58353,-3.58355 -3.58355,3.58355 -3.58354,3.58354 3.58354,3.58356 3.58355,3.58353 3.58353,-3.58353 z m -43.0025,43.0025 -3.58356,3.58356 -7.16708,-7.16709 -7.16708,-7.16709 3.58354,-3.58354 3.58354,-3.58355 7.16708,7.16709 7.16709,7.16709 -3.58353,3.58353 z m 0,-43.0025 -25.08481,25.08479 -25.08481,-25.08479 -25.08481,-25.08481 25.08481,-25.08481 25.08481,-25.08479 25.08479,25.08479 25.08481,25.08481 -25.08479,25.08481 z m -7.1671,-7.1671 17.91773,-17.91771 -17.91773,-17.91772 -17.91771,-17.91772 -17.91772,17.91772 -17.91771,17.91772 17.91771,17.91771 17.91772,17.91773 17.91771,-17.91773 z m -7.16708,-7.16708 -10.75063,10.75062 -10.75062,-10.75062 -10.75065,-10.75063 10.75065,-10.75063 10.75062,-10.75064 10.75063,10.75064 10.75062,10.75063 -10.75062,10.75063 z m 143.34172,-114.6734 -25.08479,25.08481 -25.08481,-25.08481 -25.08481,-25.0848 25.08481,-25.08481 25.08481,-25.0848 25.08479,25.0848 25.08481,25.08481 -25.08481,25.0848 z m -7.16707,-7.16708 17.91772,-17.91772 -17.91772,-17.91771 -17.91772,-17.91774 -17.91771,17.91774 -17.91773,17.91771 17.91773,17.91772 17.91771,17.91772 17.91772,-17.91772 z m -7.16709,-7.16709 -10.75063,10.75062 -10.75063,-10.75062 -10.75064,-10.75063 10.75064,-10.75064 10.75063,-10.75062 10.75063,10.75062 10.75063,10.75064 -10.75063,10.75063 z"
       style="fill:#b3b3b3"
       inkscape:export-filename="/home/fredyrivera/MEGA/MEGAsync/git/MILFS/milfs/logos/logo_grande.png"
       inkscape:export-xdpi="77.936539"
       inkscape:export-ydpi="77.936539" />
  </g>
</svg>
